<mxfile host="app.diagrams.net" modified="2020-05-24T08:53:44.136Z" agent="5.0 (Windows NT 10.0; Win64; x64) AppleWebKit/537.36 (KHTML, like Gecko) Chrome/81.0.4044.138 Safari/537.36" etag="b2bViQPYePgzR-TrJT3_" version="13.1.3" type="github">
  <diagram id="5JP8jN4p9iHxyWbap6XM" name="ページ1">
    <mxGraphModel dx="980" dy="588" grid="1" gridSize="10" guides="1" tooltips="1" connect="1" arrows="1" fold="1" page="1" pageScale="1" pageWidth="827" pageHeight="1169" math="0" shadow="0">
      <root>
        <mxCell id="0" />
        <mxCell id="1" parent="0" />
        <mxCell id="zfgiqIWmW7aFUHPPL8ro-15" value="" style="group" parent="1" vertex="1" connectable="0">
          <mxGeometry x="170" y="320" width="140" height="140" as="geometry" />
        </mxCell>
        <mxCell id="zfgiqIWmW7aFUHPPL8ro-1" value="" style="rounded=1;whiteSpace=wrap;html=1;" parent="zfgiqIWmW7aFUHPPL8ro-15" vertex="1">
          <mxGeometry width="140" height="110" as="geometry" />
        </mxCell>
        <mxCell id="zfgiqIWmW7aFUHPPL8ro-6" value="" style="group" parent="zfgiqIWmW7aFUHPPL8ro-15" vertex="1" connectable="0">
          <mxGeometry x="40" y="30" width="70" height="68" as="geometry" />
        </mxCell>
        <mxCell id="zfgiqIWmW7aFUHPPL8ro-5" value="" style="shape=cube;whiteSpace=wrap;html=1;boundedLbl=1;backgroundOutline=1;darkOpacity=0.05;darkOpacity2=0.1;size=10;" parent="zfgiqIWmW7aFUHPPL8ro-6" vertex="1">
          <mxGeometry width="70" height="60" as="geometry" />
        </mxCell>
        <mxCell id="zfgiqIWmW7aFUHPPL8ro-3" value="" style="shape=image;html=1;verticalAlign=top;verticalLabelPosition=bottom;labelBackgroundColor=#ffffff;imageAspect=0;aspect=fixed;image=https://cdn3.iconfinder.com/data/icons/logos-and-brands-adobe/512/97_Docker-128.png" parent="zfgiqIWmW7aFUHPPL8ro-6" vertex="1">
          <mxGeometry y="30" width="38" height="38" as="geometry" />
        </mxCell>
        <mxCell id="zfgiqIWmW7aFUHPPL8ro-4" value="" style="shape=image;html=1;verticalAlign=top;verticalLabelPosition=bottom;labelBackgroundColor=#ffffff;imageAspect=0;aspect=fixed;image=https://cdn4.iconfinder.com/data/icons/logos-brands-5/24/go-128.png" parent="zfgiqIWmW7aFUHPPL8ro-6" vertex="1">
          <mxGeometry x="30" y="20" width="28" height="28" as="geometry" />
        </mxCell>
        <mxCell id="zfgiqIWmW7aFUHPPL8ro-8" value="Web1" style="text;strokeColor=none;fillColor=none;html=1;fontSize=24;fontStyle=1;verticalAlign=middle;align=center;" parent="zfgiqIWmW7aFUHPPL8ro-15" vertex="1">
          <mxGeometry x="15" y="100" width="100" height="40" as="geometry" />
        </mxCell>
        <mxCell id="zfgiqIWmW7aFUHPPL8ro-16" value="" style="group" parent="1" vertex="1" connectable="0">
          <mxGeometry x="344" y="320" width="140" height="140" as="geometry" />
        </mxCell>
        <mxCell id="zfgiqIWmW7aFUHPPL8ro-17" value="" style="rounded=1;whiteSpace=wrap;html=1;" parent="zfgiqIWmW7aFUHPPL8ro-16" vertex="1">
          <mxGeometry width="140" height="110" as="geometry" />
        </mxCell>
        <mxCell id="zfgiqIWmW7aFUHPPL8ro-18" value="" style="group" parent="zfgiqIWmW7aFUHPPL8ro-16" vertex="1" connectable="0">
          <mxGeometry x="40" y="30" width="70" height="68" as="geometry" />
        </mxCell>
        <mxCell id="zfgiqIWmW7aFUHPPL8ro-19" value="" style="shape=cube;whiteSpace=wrap;html=1;boundedLbl=1;backgroundOutline=1;darkOpacity=0.05;darkOpacity2=0.1;size=10;" parent="zfgiqIWmW7aFUHPPL8ro-18" vertex="1">
          <mxGeometry width="70" height="60" as="geometry" />
        </mxCell>
        <mxCell id="zfgiqIWmW7aFUHPPL8ro-20" value="" style="shape=image;html=1;verticalAlign=top;verticalLabelPosition=bottom;labelBackgroundColor=#ffffff;imageAspect=0;aspect=fixed;image=https://cdn3.iconfinder.com/data/icons/logos-and-brands-adobe/512/97_Docker-128.png" parent="zfgiqIWmW7aFUHPPL8ro-18" vertex="1">
          <mxGeometry y="30" width="38" height="38" as="geometry" />
        </mxCell>
        <mxCell id="zfgiqIWmW7aFUHPPL8ro-21" value="" style="shape=image;html=1;verticalAlign=top;verticalLabelPosition=bottom;labelBackgroundColor=#ffffff;imageAspect=0;aspect=fixed;image=https://cdn4.iconfinder.com/data/icons/logos-brands-5/24/go-128.png" parent="zfgiqIWmW7aFUHPPL8ro-18" vertex="1">
          <mxGeometry x="30" y="20" width="28" height="28" as="geometry" />
        </mxCell>
        <mxCell id="zfgiqIWmW7aFUHPPL8ro-22" value="Web21" style="text;strokeColor=none;fillColor=none;html=1;fontSize=24;fontStyle=1;verticalAlign=middle;align=center;" parent="zfgiqIWmW7aFUHPPL8ro-16" vertex="1">
          <mxGeometry x="15" y="100" width="100" height="40" as="geometry" />
        </mxCell>
        <mxCell id="zfgiqIWmW7aFUHPPL8ro-32" value="" style="group" parent="1" vertex="1" connectable="0">
          <mxGeometry x="260" y="130" width="140" height="140" as="geometry" />
        </mxCell>
        <mxCell id="zfgiqIWmW7aFUHPPL8ro-24" value="" style="rounded=1;whiteSpace=wrap;html=1;" parent="zfgiqIWmW7aFUHPPL8ro-32" vertex="1">
          <mxGeometry width="140" height="110" as="geometry" />
        </mxCell>
        <mxCell id="zfgiqIWmW7aFUHPPL8ro-29" value="lb1" style="text;strokeColor=none;fillColor=none;html=1;fontSize=24;fontStyle=1;verticalAlign=middle;align=center;" parent="zfgiqIWmW7aFUHPPL8ro-32" vertex="1">
          <mxGeometry x="15" y="100" width="100" height="40" as="geometry" />
        </mxCell>
        <mxCell id="zfgiqIWmW7aFUHPPL8ro-31" value="" style="group" parent="zfgiqIWmW7aFUHPPL8ro-32" vertex="1" connectable="0">
          <mxGeometry x="25" y="30" width="100" height="68" as="geometry" />
        </mxCell>
        <mxCell id="zfgiqIWmW7aFUHPPL8ro-26" value="" style="shape=cube;whiteSpace=wrap;html=1;boundedLbl=1;backgroundOutline=1;darkOpacity=0.05;darkOpacity2=0.1;size=10;" parent="zfgiqIWmW7aFUHPPL8ro-31" vertex="1">
          <mxGeometry x="15" width="70" height="60" as="geometry" />
        </mxCell>
        <mxCell id="zfgiqIWmW7aFUHPPL8ro-27" value="" style="shape=image;html=1;verticalAlign=top;verticalLabelPosition=bottom;labelBackgroundColor=#ffffff;imageAspect=0;aspect=fixed;image=https://cdn3.iconfinder.com/data/icons/logos-and-brands-adobe/512/97_Docker-128.png" parent="zfgiqIWmW7aFUHPPL8ro-31" vertex="1">
          <mxGeometry x="15" y="30" width="38" height="38" as="geometry" />
        </mxCell>
        <mxCell id="zfgiqIWmW7aFUHPPL8ro-30" value="pound" style="text;strokeColor=none;fillColor=none;html=1;fontSize=24;fontStyle=1;verticalAlign=middle;align=center;" parent="zfgiqIWmW7aFUHPPL8ro-31" vertex="1">
          <mxGeometry y="5" width="100" height="40" as="geometry" />
        </mxCell>
        <mxCell id="zfgiqIWmW7aFUHPPL8ro-33" style="edgeStyle=orthogonalEdgeStyle;rounded=0;orthogonalLoop=1;jettySize=auto;html=1;entryX=0.5;entryY=0;entryDx=0;entryDy=0;" parent="1" source="zfgiqIWmW7aFUHPPL8ro-29" target="zfgiqIWmW7aFUHPPL8ro-1" edge="1">
          <mxGeometry relative="1" as="geometry" />
        </mxCell>
        <mxCell id="zfgiqIWmW7aFUHPPL8ro-34" style="edgeStyle=orthogonalEdgeStyle;rounded=0;orthogonalLoop=1;jettySize=auto;html=1;" parent="1" source="zfgiqIWmW7aFUHPPL8ro-29" target="zfgiqIWmW7aFUHPPL8ro-17" edge="1">
          <mxGeometry relative="1" as="geometry" />
        </mxCell>
      </root>
    </mxGraphModel>
  </diagram>
</mxfile>
